<?xml version="1.0" encoding="iso-8859-1"?>
<!-- Generator: Adobe Illustrator 18.0.0, SVG Export Plug-In . SVG Version: 6.00 Build 0)  -->
<!DOCTYPE svg PUBLIC "-//W3C//DTD SVG 1.1//EN" "http://www.w3.org/Graphics/SVG/1.1/DTD/svg11.dtd">
<svg version="1.1" id="Capa_1" xmlns="http://www.w3.org/2000/svg" xmlns:xlink="http://www.w3.org/1999/xlink" x="0px" y="0px"
	 viewBox="0 0 484.113 484.113" style="enable-background:new 0 0 484.113 484.113;" xml:space="preserve">
<g>
	<path d="M473.534,340.762l-67.047-82.081h29.705c4.252,0,8.124-2.421,9.973-6.245c1.855-3.822,1.354-8.364-1.274-11.709
		l-71.645-90.668h21.356c4.174,0,7.997-2.34,9.885-6.068c1.888-3.728,1.514-8.189-0.956-11.566l-93.814-127.9
		C307.632,1.689,304.317,0,300.789,0c-3.528,0-6.844,1.689-8.93,4.523l-93.821,127.9c-2.469,3.377-2.836,7.839-0.957,11.566
		c1.89,3.729,5.712,6.068,9.887,6.068h21.373l-16.537,20.935l19.53,26.623c2.462,3.36,3.833,7.168,4.589,11.089
		c1.116,5.83,0.551,11.932-2.246,17.477c-1.793,3.537-4.27,6.563-7.225,8.953l36.355,45.994c6.438,8.19,7.664,19.532,3.139,28.9
		c-1.067,2.199-2.518,4.125-4.094,5.927c-2.047,2.341-4.357,4.413-7.043,5.927l29.904,36.61c6.659,8.157,8.046,19.564,3.528,29.074
		c-4.516,9.511-14.226,15.646-24.741,15.646h-10.013v69.828c0,6.118,4.963,11.072,11.081,11.072h72.44
		c6.118,0,11.08-4.954,11.08-11.072V358.844h116.867c4.277,0,8.171-2.47,10.003-6.325
		C476.801,348.648,476.244,344.074,473.534,340.762z"/>
	<path d="M273.506,380.574c1.841-3.872,1.282-8.444-1.426-11.758l-48.727-59.647h17.931c4.246,0,8.126-2.423,9.973-6.245
		c1.849-3.823,1.354-8.363-1.274-11.71l-52.431-66.339h11.687c4.173,0,7.997-2.343,9.885-6.07c1.88-3.729,1.515-8.189-0.956-11.566
		l-71.509-97.486c-1.249-1.705-3.226-2.708-5.328-2.708c-2.103,0-4.079,1.003-5.329,2.708l-71.51,97.486
		c-2.47,3.378-2.835,7.838-0.956,11.566c1.888,3.728,5.712,6.07,9.887,6.07h11.686l-52.432,66.339
		c-2.628,3.347-3.122,7.887-1.274,11.71c1.849,3.822,5.729,6.245,9.973,6.245h17.932l-48.727,59.647
		c-2.709,3.314-3.267,7.886-1.426,11.758c1.832,3.854,5.727,6.324,10.005,6.324h85.466v16.314v69.828
		c0,6.118,4.963,11.072,11.08,11.072h51.252c6.117,0,11.08-4.954,11.08-11.072v-69.828v-16.314h85.465
		C267.778,386.899,271.674,384.429,273.506,380.574z"/>
</g>
<g>
</g>
<g>
</g>
<g>
</g>
<g>
</g>
<g>
</g>
<g>
</g>
<g>
</g>
<g>
</g>
<g>
</g>
<g>
</g>
<g>
</g>
<g>
</g>
<g>
</g>
<g>
</g>
<g>
</g>
</svg>
